<svg id="cross" xmlns="http://www.w3.org/2000/svg" width="32" height="32" fill="none"><defs><clipPath id="a"><rect width="31" height="31" fill="#fff" fill-opacity="0" rx="0" transform="translate(.5 .5)"/></clipPath></defs><g clip-path="url(#a)"><path fill="currentColor" fill-rule="evenodd" d="M6.29 6.29a.996.996 0 0 1 1.41 0l8.3 8.29 8.29-8.29A.996.996 0 1 1 25.7 7.7L17.41 16l8.29 8.29a.996.996 0 1 1-1.41 1.41L16 17.41 7.7 25.7a.996.996 0 1 1-1.41-1.41L14.58 16 6.29 7.7a.996.996 0 0 1 0-1.41Z"/></g></svg>