<svg id="info" xmlns="http://www.w3.org/2000/svg" width="24" height="24" fill="none"><defs><clipPath id="a"><rect width="23" height="23" fill="#fff" fill-opacity="0" rx="0" transform="translate(.5 .5)"/></clipPath></defs><g clip-path="url(#a)"><path fill="currentColor" fill-rule="evenodd" d="M12 3c-4.98 0-9 4.02-9 9 0 4.97 4.02 9 9 9a9 9 0 0 0 9-9c0-4.98-4.03-9-9-9Zm-7.5 9c0-4.15 3.35-7.5 7.5-7.5 4.14 0 7.5 3.35 7.5 7.5 0 4.14-3.36 7.5-7.5 7.5-4.15 0-7.5-3.36-7.5-7.5Zm8.62-4.88C13.12 6.5 12.62 6 12 6c-.63 0-1.13.5-1.13 1.12 0 .62.5 1.13 1.13 1.13.62 0 1.12-.51 1.12-1.13ZM12 18c.41 0 .75-.34.75-.75v-6c0-.42-.34-.75-.75-.75-.42 0-.75.33-.75.75v6c0 .41.33.75.75.75Z"/></g></svg>