<svg id="like-big" width="48.000000" height="48.000000" viewBox="0 0 48 48" fill="none" xmlns="http://www.w3.org/2000/svg" xmlns:xlink="http://www.w3.org/1999/xlink">
	<defs>
		<clipPath id="clip474_7604">
			<rect id="service/like" rx="0.000000" width="47.000000" height="47.000000" transform="translate(0.500000 0.500000)" fill="white" fill-opacity="0"/>
		</clipPath>
	</defs>
	<g clip-path="url(#clip474_7604)">
		<path id="Vector" d="M12.8 39.16L10.51 39.16C8.02 39.16 6 37.15 6 34.66L6 21.03C6 18.54 8.02 16.53 10.51 16.53L14.48 16.53C15.39 15.72 16.77 14.05 17.29 10.79L17.56 8.75C17.67 8.15 17.92 7.16 18.82 6.55C19.74 5.94 20.84 5.9 21.73 6.11C22.64 6.33 23.53 6.85 24.16 7.63C25.1 8.79 25.42 10.32 25.5 11.68C25.58 13.08 25.42 14.52 25.2 15.72C25.19 15.76 25.23 15.91 25.27 15.91L36.61 15.91C41.81 15.91 43.74 22.44 40.17 25.39C40.53 27.29 39.79 29.26 38.32 30.49C38.69 32.4 37.95 34.37 36.47 35.6C37.1 38.82 34.45 41.99 31.08 41.99L22.55 41.99L22.47 41.99C21.09 42 19.8 42 18.48 41.69C17.15 41.38 15.86 40.77 14.32 39.71L12.8 39.16ZM9 21.03C9 20.2 9.68 19.53 10.51 19.53L13.52 19.53L13.52 36.16L10.51 36.16C9.68 36.16 9 35.49 9 34.66L9 21.03ZM32.74 24.75C32.74 23.92 33.42 23.25 34.25 23.25L38 23.25C39.77 22.09 39.03 18.91 36.61 18.91L25.27 18.91C23.22 18.91 21.9 16.98 22.24 15.18C22.43 14.12 22.56 12.93 22.5 11.86C22.43 10.75 22.18 9.96 21.81 9.5C21.65 9.29 21.35 9.11 21.03 9.03C20.82 8.98 20.68 8.99 20.59 9.01L20.26 11.25C19.62 15.28 17.86 17.53 16.53 18.73L16.53 37.57C17.6 38.26 18.41 38.59 19.17 38.77C20.11 38.99 21.06 39 22.55 38.99L31.08 38.99C32.53 38.99 33.57 37.73 33.54 36.48L30.3 36.48C29.47 36.48 28.8 35.81 28.8 34.98C28.8 34.15 29.47 33.48 30.3 33.48L34.3 33.48C35.03 33.01 35.44 32.18 35.4 31.37L32.58 31.37C31.75 31.37 31.08 30.69 31.08 29.87C31.08 29.04 31.75 28.37 32.58 28.37L36.15 28.37C36.88 27.89 37.28 27.07 37.24 26.25L34.25 26.25C33.42 26.25 32.74 25.58 32.74 24.75Z" fill="currentColor" fill-opacity="1.000000" fill-rule="evenodd"/>
	</g>
</svg>
