<svg id="like" xmlns="http://www.w3.org/2000/svg" width="40" height="40" fill="none"><defs><clipPath id="a"><rect width="39" height="39" fill="#fff" fill-opacity="0" rx="0" transform="translate(.5 .5)"/></clipPath></defs><g clip-path="url(#a)"><path fill="currentColor" fill-rule="evenodd" d="M10.67 32.63H8.76c-2.08 0-3.77-1.68-3.77-3.75V17.52c0-2.07 1.69-3.75 3.77-3.75h3.31c.75-.67 1.9-2.06 2.34-4.78l.22-1.7c.1-.5.3-1.33 1.05-1.83.77-.51 1.68-.54 2.43-.37.75.18 1.5.61 2.03 1.27.78.97 1.04 2.24 1.11 3.37.07 1.17-.07 2.37-.25 3.37-.01.03.02.16.06.16h9.45c4.33 0 5.94 5.44 2.96 7.9.31 1.58-.31 3.22-1.54 4.25.31 1.59-.31 3.23-1.54 4.26.53 2.68-1.68 5.32-4.49 5.32h-7.17c-1.16.01-2.23.01-3.33-.25-1.11-.26-2.18-.76-3.47-1.65l-1.26-.46ZM7.5 17.52c0-.69.56-1.25 1.26-1.25h2.5v13.86h-2.5c-.7 0-1.26-.56-1.26-1.25V17.52Zm19.79 3.11c0-.69.56-1.25 1.25-1.25h3.12c1.48-.97.87-3.62-1.15-3.62h-9.45c-1.71 0-2.81-1.61-2.53-3.11.16-.88.27-1.87.22-2.77-.06-.93-.27-1.58-.57-1.96-.14-.18-.39-.33-.66-.4a.734.734 0 0 0-.36-.01l-.28 1.87c-.53 3.35-2 5.23-3.11 6.23v15.7c.89.57 1.57.85 2.2 1 .79.18 1.58.19 2.82.18h7.11c1.21 0 2.08-1.05 2.05-2.09h-2.7a1.25 1.25 0 0 1 0-2.5h3.34c.6-.39.94-1.08.91-1.76h-2.35a1.25 1.25 0 0 1 0-2.5h2.97c.61-.4.95-1.08.91-1.76h-2.49c-.69 0-1.25-.56-1.25-1.25Z"/></g></svg>