<svg id="smile-big" width="48.000000" height="48.000000" viewBox="0 0 48 48" fill="none" xmlns="http://www.w3.org/2000/svg" xmlns:xlink="http://www.w3.org/1999/xlink">
	<desc>
			Created with Pixso.
	</desc>
	<defs>
		<clipPath id="clip474_7624">
			<rect id="service/smile_opros" rx="0.000000" width="47.000000" height="47.000000" transform="translate(0.500000 0.500000)" fill="white" fill-opacity="0"/>
		</clipPath>
	</defs>
	<g clip-path="url(#clip474_7624)">
		<path id="Vector" d="M42 24C42 33.94 33.94 42 24 42C14.05 42 6 33.94 6 24C6 14.05 14.05 6 24 6C33.94 6 42 14.05 42 24ZM39 24C39 32.28 32.28 39 24 39C15.71 39 9 32.28 9 24C9 15.71 15.71 9 24 9C32.28 9 39 15.71 39 24ZM21.54 20.7C21.54 19.2 20.44 18 19.09 18C18.23 18 17.48 18.47 17.04 19.2C16.6 18.47 15.85 18 15 18C13.64 18 12.54 19.2 12.54 20.7C12.54 22.64 14.18 24.3 15 25.2C15.34 25.57 15.73 25.94 16.17 26.32C16.68 26.74 17.4 26.74 17.91 26.32C18.35 25.94 18.75 25.57 19.09 25.2C19.9 24.3 21.54 22.64 21.54 20.7ZM33 18C34.35 18 35.45 19.2 35.45 20.7C35.45 22.64 33.81 24.3 33 25.2C32.65 25.57 32.26 25.94 31.82 26.32C31.31 26.74 30.59 26.74 30.08 26.32C29.64 25.94 29.24 25.57 28.9 25.2C28.09 24.3 26.45 22.64 26.45 20.7C26.45 19.2 27.55 18 28.9 18C29.76 18 30.51 18.47 30.95 19.2C31.39 18.47 32.14 18 33 18ZM19.73 28.98C19.27 28.29 18.34 28.1 17.65 28.56C16.96 29.01 16.77 29.94 17.23 30.63C17.5 31.05 17.91 31.6 18.48 32.16C19.61 33.28 21.45 34.5 24 34.5C26.54 34.5 28.38 33.28 29.51 32.16C30.08 31.6 30.49 31.05 30.76 30.63C31.22 29.94 31.03 29.01 30.34 28.56C29.65 28.1 28.72 28.29 28.26 28.98C28.07 29.27 27.79 29.65 27.4 30.02C26.64 30.78 25.51 31.5 24 31.5C22.48 31.5 21.35 30.78 20.59 30.02C20.2 29.65 19.92 29.27 19.73 28.98Z" fill="#6D778B" fill-opacity="1.000000" fill-rule="evenodd"/>
	</g>
</svg>
