<svg id="smile" xmlns="http://www.w3.org/2000/svg" width="40" height="40" fill="none"><defs><clipPath id="a"><rect width="39" height="39" fill="#fff" fill-opacity="0" rx="0" transform="translate(.5 .5)"/></clipPath></defs><g clip-path="url(#a)"><path fill="currentColor" fill-rule="evenodd" d="M35 20c0 8.28-6.72 15-15 15-8.29 0-15-6.72-15-15 0-8.29 6.71-15 15-15 8.28 0 15 6.71 15 15Zm-2.5 0c0 6.9-5.6 12.5-12.5 12.5-6.91 0-12.5-5.6-12.5-12.5 0-6.91 5.59-12.5 12.5-12.5 6.9 0 12.5 5.59 12.5 12.5Zm-14.55-2.75c0-1.25-.92-2.25-2.05-2.25-.71 0-1.33.39-1.7 1-.37-.61-.99-1-1.7-1-1.13 0-2.05 1-2.05 2.25 0 1.61 1.36 3 2.05 3.75.28.31.61.62.98.93.42.35 1.02.35 1.44 0 .37-.31.7-.62.98-.93.69-.75 2.05-2.14 2.05-3.75ZM27.5 15c1.12 0 2.04 1 2.04 2.25 0 1.61-1.36 3-2.04 3.75-.29.31-.62.62-.99.93-.42.35-1.02.35-1.44 0-.37-.31-.7-.62-.98-.93-.69-.75-2.05-2.14-2.05-3.75 0-1.25.92-2.25 2.05-2.25.71 0 1.33.39 1.7 1 .37-.61.99-1 1.71-1Zm-11.06 9.15c-.38-.58-1.15-.73-1.73-.35-.58.38-.74 1.15-.36 1.73.23.34.58.8 1.05 1.27.94.93 2.47 1.95 4.6 1.95 2.12 0 3.65-1.02 4.59-1.95.47-.47.82-.93 1.05-1.27.38-.58.22-1.35-.36-1.73-.58-.38-1.35-.23-1.73.35-.16.24-.4.56-.71.87-.64.63-1.58 1.23-2.84 1.23-1.27 0-2.21-.6-2.85-1.23-.31-.31-.55-.63-.71-.87Z"/></g></svg>