<svg id="star-big" width="48.000000" height="48.000000" viewBox="0 0 48 48" fill="none" xmlns="http://www.w3.org/2000/svg" xmlns:xlink="http://www.w3.org/1999/xlink">
	<defs>
		<clipPath id="clip474_7614">
			<rect id="service/star" rx="0.000000" width="47.000000" height="47.000000" transform="translate(0.500000 0.500000)" fill="white" fill-opacity="0"/>
		</clipPath>
	</defs>
	<g clip-path="url(#clip474_7614)">
		<path id="Vector (Stroke)" d="M25.39 34.59C24.52 34.14 23.49 34.14 22.62 34.59L14.12 39L15.75 29.59C15.91 28.67 15.64 27.74 15.02 27.05L9 20.45L17.52 19.11C18.48 18.96 19.31 18.36 19.74 17.49L24 9L28.25 17.49C28.68 18.36 29.51 18.96 30.47 19.11L39 20.45L32.98 27.05C32.35 27.74 32.08 28.67 32.24 29.59L33.87 39L25.39 34.59ZM36.18 27.99C35.56 28.67 35.28 29.61 35.44 30.52L36.83 38.48C37.02 39.6 36.57 40.74 35.65 41.42C34.72 42.09 33.5 42.18 32.49 41.66L25.39 37.97C24.52 37.52 23.49 37.52 22.62 37.97L15.5 41.66C14.49 42.18 13.26 42.09 12.34 41.41C11.42 40.74 10.97 39.6 11.16 38.48L12.55 30.52C12.71 29.61 12.43 28.67 11.81 27.99L6.78 22.47C6.03 21.66 5.8 20.5 6.16 19.46C6.53 18.42 7.44 17.66 8.53 17.49L15.53 16.39C16.49 16.24 17.32 15.63 17.75 14.77L21.31 7.65C21.82 6.64 22.86 6 24 6C25.13 6 26.17 6.64 26.68 7.65L30.24 14.77C30.67 15.63 31.5 16.24 32.46 16.39L39.46 17.49C40.55 17.66 41.46 18.42 41.83 19.46C42.19 20.5 41.96 21.66 41.21 22.47L36.18 27.99Z" fill="currentColor" fill-opacity="1.000000" fill-rule="evenodd"/>
	</g>
</svg>
